<svg xmlns="http://www.w3.org/2000/svg" viewBox="0 0 2667 2667">
<g transform="translate(0.000000,2667.000000) scale(0.100000,-0.100000)"
fill="#000000" stroke="none">
<path fill="#000000" stroke="none" d="M12880 26453 c-979 -41 -1784 -154
-2675 -373 -970 -238 -1825 -553 -2735 -1007 -1640 -818 -3056 -1940 -4230
-3353 -669 -804 -1200 -1623 -1669 -2570 -281 -567 -481 -1052 -681 -1650
-682 -2037 -854 -4189 -504 -6310 389 -2361 1424 -4580 2985 -6401 418 -487
911 -981 1394 -1397 1329 -1144 2862 -2007 4525 -2547 1013 -329 2031 -525
3170 -611 281 -21 1153 -30 1465 -15 2424 118 4700 864 6695 2194 739 492
1342 989 1991 1637 659 658 1138 1241 1648 2005 489 733 910 1526 1238 2334
480 1181 786 2431 908 3701 37 388 47 591 52 1085 6 517 -2 774 -33 1175 -204
2634 -1208 5165 -2862 7215 -506 626 -1076 1215 -1682 1735 -985 845 -2126
1560 -3310 2072 -1504 651 -3045 1005 -4690 1078 -199 9 -824 11 -1000 3z"/>
<path fill="#ffffff" stroke="none" d="M13093 25269 c170 -25 287 -79 371
-169 82 -89 119 -180 132 -326 19 -204 -72 -379 -262 -504 l-71 -46 289 -398
c159 -219 287 -400 285 -402 -5 -6 -419 -23 -428 -18 -3 1 -113 163 -244 358
l-239 356 -105 -7 c-59 -3 -108 -7 -109 -9 -2 -1 2 -163 9 -358 7 -196 10
-359 7 -362 -3 -2 -91 -8 -196 -11 l-190 -6 -6 64 c-9 102 -66 1822 -61 1827
17 17 717 26 818 11z"/>
<path fill="#ffffff" stroke="none" d="M15195 25175 c332 -50 563 -195 680
-425 90 -178 117 -450 71 -708 -75 -416 -270 -677 -581 -778 -188 -62 -502
-38 -735 56 -189 76 -354 243 -423 428 -46 126 -60 227 -54 412 11 365 117
646 312 828 183 171 425 233 730 187z"/>
<path fill="#ffffff" stroke="none" d="M10773 24953 c9 -38 27 -107 40 -154
l24 -87 -323 -88 c-178 -48 -328 -90 -334 -94 -6 -4 11 -82 44 -204 30 -109
56 -199 58 -201 2 -1 140 35 308 80 168 46 307 81 310 78 3 -2 24 -72 46 -155
28 -100 38 -151 30 -154 -6 -2 -143 -40 -305 -83 -161 -44 -296 -83 -299 -86
-4 -4 115 -463 123 -473 2 -2 152 38 335 88 183 50 334 89 335 88 5 -7 85
-311 83 -313 -6 -6 -1014 -278 -1032 -279 -17 -1 -47 104 -267 909 -136 500
-246 911 -244 913 6 7 1010 280 1031 281 17 1 23 -10 37 -66z"/>
<path fill="#ffffff" stroke="none" d="M17171 24665 c445 -164 575 -230 700
-354 93 -94 129 -201 109 -325 -38 -241 -195 -406 -385 -406 -36 0 -65 -4 -65
-8 0 -4 13 -15 29 -25 53 -31 138 -133 157 -189 39 -111 12 -289 -64 -418
-122 -210 -377 -294 -667 -220 -64 16 -781 273 -792 283 -2 3 524 1451 638
1755 5 12 12 22 17 22 5 0 150 -52 323 -115z"/>
<path fill="#ffffff" stroke="none" d="M8784 24205 c254 -53 453 -217 594
-492 274 -533 141 -992 -373 -1287 -81 -46 -615 -299 -620 -294 -3 3 -730
1554 -775 1655 l-28 61 281 132 c336 158 423 193 548 219 115 24 273 27 373 6z"/>
<path fill="#ffffff" stroke="none" d="M20178 23860 c78 -47 141 -88 142 -93
0 -4 -11 -12 -24 -17 -35 -13 -307 -57 -467 -75 l-136 -16 -111 67 c-62 37
-112 70 -112 74 0 15 28 28 164 74 77 27 178 65 225 86 l86 37 46 -26 c25 -14
110 -64 187 -111z"/>
<path fill="#ffffff" stroke="none" d="M19270 23710 c166 -46 384 -175 511
-300 115 -114 174 -216 214 -366 19 -71 22 -233 5 -324 -66 -365 -351 -764
-641 -899 -224 -105 -459 -92 -719 39 -221 111 -388 263 -469 426 -120 243
-104 511 50 817 177 353 429 577 707 627 76 14 258 4 342 -20z"/>
<path fill="#ffffff" stroke="none" d="M13965 22910 c1732 -129 3286 -656
4685 -1588 867 -577 1616 -1270 2246 -2078 926 -1186 1561 -2571 1853 -4044
118 -595 169 -1089 178 -1720 10 -680 -34 -1227 -148 -1855 -401 -2212 -1558
-4202 -3284 -5651 -1449 -1216 -3254 -1981 -5150 -2184 -567 -60 -1281 -66
-1860 -14 -1455 129 -2887 599 -4135 1359 -1193 727 -2227 1717 -2989 2865
-261 392 -423 673 -626 1085 -569 1151 -883 2325 -977 3650 -16 237 -17 968 0
1195 28 374 56 626 107 935 209 1284 658 2474 1347 3575 758 1211 1813 2263
3028 3023 1061 664 2227 1110 3460 1326 390 68 759 107 1280 135 124 7 846 -3
985 -14z"/>
<path fill="#ffffff" stroke="none" d="M21230 22320 c291 -255 529 -468 527
-473 -1 -4 -49 -61 -106 -127 l-103 -119 -195 171 c-190 167 -196 171 -212
152 -53 -65 -1002 -1144 -1011 -1149 -9 -6 -110 76 -259 211 l-45 41 499 569
c274 313 506 578 516 589 17 20 14 23 -176 190 -189 165 -193 170 -177 190 57
72 197 225 203 223 5 -2 247 -212 539 -468z"/>
<path fill="#ffffff" stroke="none" d="M6293 22765 c141 -37 279 -177 327
-334 34 -109 23 -205 -35 -292 -13 -20 -22 -39 -19 -42 3 -3 31 7 62 21 50 24
70 27 157 27 89 0 106 -3 157 -28 68 -33 166 -127 220 -212 59 -90 82 -177 76
-289 -8 -142 -66 -267 -188 -399 -81 -88 -659 -572 -670 -561 -4 5 -276 333
-605 728 -413 497 -595 723 -589 732 12 16 476 400 552 456 166 124 345 204
462 207 20 1 62 -6 93 -14z"/>
<path fill="#ffffff" stroke="none" d="M22316 21238 l282 -320 -85 -75 -84
-75 -116 51 c-100 45 -117 50 -132 38 -33 -28 -877 -770 -894 -787 -18 -16
-17 -21 18 -138 l37 -122 -48 -43 c-27 -24 -65 -58 -85 -75 l-36 -31 -279 317
c-153 174 -279 322 -279 328 0 13 148 144 163 144 6 0 59 -22 119 -49 105 -48
109 -49 128 -31 11 9 218 192 460 405 242 214 441 392 443 396 2 5 -13 61 -33
125 -42 134 -50 109 65 208 36 31 67 56 70 55 3 0 132 -145 286 -321z"/>
<path fill="#ffffff" stroke="none" d="M5076 21115 c267 -219 508 -423 534
-452 66 -72 113 -153 146 -248 34 -99 38 -241 11 -345 -50 -188 -212 -421
-388 -555 -251 -194 -558 -191 -816 8 -87 68 -921 752 -951 781 l-22 22 122
149 c68 82 127 148 131 147 4 0 217 -173 473 -384 256 -211 493 -400 527 -420
87 -52 172 -73 242 -58 108 22 235 136 301 268 22 46 28 71 28 127 1 89 -29
157 -107 241 -31 33 -263 231 -516 439 -254 208 -461 381 -461 385 0 12 243
301 251 298 5 -2 228 -183 495 -403z"/>
<path fill="#ffffff" stroke="none" d="M22890 20189 c301 -48 566 -317 688
-700 35 -109 55 -210 45 -220 -10 -8 -322 -74 -327 -68 -1 2 -15 60 -30 129
-34 152 -61 222 -120 305 -151 211 -386 240 -681 86 -257 -134 -432 -321 -464
-496 -21 -112 19 -236 117 -365 53 -70 206 -220 271 -266 22 -16 40 -32 38
-37 -1 -4 -62 -47 -136 -96 l-134 -90 -58 44 c-161 125 -295 289 -384 470 -71
145 -89 214 -89 345 -1 113 12 180 51 275 114 273 468 565 803 661 137 39 261
46 410 23z"/>
<path fill="#ffffff" stroke="none" d="M3542 18740 c370 -209 677 -379 683
-376 5 2 93 151 194 330 101 179 187 326 191 326 6 0 269 -146 278 -155 3 -3
-556 -994 -569 -1009 -8 -9 -1648 913 -1649 928 0 15 183 336 192 336 4 0 310
-171 680 -380z"/>
<path fill="#ffffff" stroke="none" d="M24315 18114 l98 -226 -39 -37 c-40
-40 -1383 -1290 -1420 -1323 -20 -18 -21 -18 -102 171 -45 104 -82 193 -82
199 0 5 78 76 173 157 94 81 173 151 175 155 2 5 -262 624 -272 637 -1 1 -78
-7 -171 -18 -94 -11 -201 -21 -238 -22 l-68 -2 -84 193 -84 192 37 1 c34 0
1959 145 1973 148 3 0 50 -101 104 -225z"/>
<path fill="#ffffff" stroke="none" d="M2643 18016 l88 -80 -59 -60 c-132
-135 -196 -238 -228 -366 -55 -218 88 -436 370 -565 238 -109 469 -141 619
-85 174 65 280 276 308 613 l12 145 66 -25 c36 -14 104 -39 151 -57 l85 -32
-2 -116 c-2 -134 -32 -277 -89 -422 -99 -251 -243 -409 -444 -489 -236 -93
-589 -49 -910 114 -392 199 -578 541 -504 929 38 203 153 421 308 587 l58 63
42 -37 c22 -20 81 -73 129 -117z"/>
<path fill="#ffffff" stroke="none" d="M10684 3264 c281 -69 512 -127 515
-129 8 -9 -74 -315 -84 -312 -46 16 -656 160 -660 156 -6 -7 -115 -444 -115
-463 0 -9 95 -37 300 -87 165 -40 304 -76 309 -79 13 -7 -61 -310 -75 -310 -6
0 -147 33 -313 74 -166 40 -303 71 -305 67 -2 -3 -43 -166 -91 -361 -48 -195
-89 -356 -90 -358 -5 -6 -375 91 -375 99 0 8 417 1705 440 1789 6 22 16 40 22
40 7 0 242 -57 522 -126z"/>
<path fill="#ffffff" stroke="none" d="M16929 2528 c303 -456 551 -832 551
-837 0 -5 -84 -30 -187 -55 -104 -26 -195 -49 -204 -52 -12 -3 -46 46 -134
192 -66 108 -125 198 -131 201 -12 5 -654 -155 -666 -166 -3 -3 -11 -109 -18
-236 -6 -126 -13 -231 -15 -233 -9 -9 -397 -104 -402 -98 -6 5 164 1997 171
2002 8 8 473 120 477 115 4 -3 255 -378 558 -833z"/>
<path fill="#ffffff" stroke="none" d="M11690 3070 c222 -33 405 -62 407 -64
6 -5 -27 -210 -35 -218 -4 -3 -56 -21 -117 -38 -60 -17 -113 -35 -117 -38 -3
-4 -45 -270 -92 -592 -48 -322 -88 -594 -91 -606 -4 -18 13 -32 100 -88 80
-52 105 -73 105 -89 0 -37 -22 -192 -29 -199 -9 -10 -846 116 -846 128 0 5 6
55 14 111 l13 102 57 16 c197 56 188 53 195 88 15 89 176 1190 174 1192 -2 1
-49 32 -105 69 -67 43 -103 72 -103 83 0 19 16 128 26 176 4 17 12 27 23 27
10 0 200 -27 421 -60z"/>
<path fill="#ffffff" stroke="none" d="M15014 3004 c158 -35 262 -115 306
-232 92 -244 25 -486 -157 -569 -29 -14 -51 -28 -48 -32 2 -5 27 -11 55 -14
112 -13 226 -92 276 -189 46 -91 71 -248 54 -354 -37 -241 -242 -411 -560
-464 -92 -15 -764 -89 -769 -84 -6 6 -215 1873 -210 1878 3 4 551 67 689 80
82 7 292 -4 364 -20z"/>
<path fill="#ffffff" stroke="none" d="M12596 2966 c0 0 -8 -242 -18 -536 -22
-647 -20 -781 11 -863 13 -32 36 -74 53 -93 42 -48 138 -92 228 -104 239 -34
391 64 435 279 9 43 19 244 30 576 8 281 18 557 21 614 l6 104 191 -7 c105 -4
193 -9 196 -12 3 -2 -5 -300 -16 -662 -24 -726 -23 -721 -95 -871 -77 -162
-235 -283 -434 -333 -76 -19 -115 -22 -264 -22 -155 1 -186 4 -272 27 -210 56
-355 169 -436 339 -45 93 -59 145 -68 244 -5 62 17 905 32 1212 l6 122 197 -6
c108 -4 196 -7 197 -8z"/>
<path fill="#000000" stroke="none" d="M12727 24953 l-49 -4 7 -217 c3 -119 8
-236 11 -260 l5 -43 107 6 c196 12 293 47 345 122 56 81 57 211 2 295 -55 83
-205 118 -428 101z"/>
<path fill="#000000" stroke="none" d="M14980 24848 c-219 -33 -370 -271 -411
-644 -30 -282 49 -492 218 -577 139 -71 338 -80 460 -21 179 86 303 384 303
729 0 334 -142 495 -455 517 -33 3 -85 1 -115 -4z"/>
<path fill="#000000" stroke="none" d="M17082 24288 c-104 -280 -124 -340
-116 -348 5 -4 74 -32 154 -60 175 -63 262 -75 326 -42 49 25 67 45 93 102 28
62 28 137 -2 181 -36 55 -132 111 -284 167 -77 29 -143 52 -146 52 -3 0 -14
-24 -25 -52z"/>
<path fill="#000000" stroke="none" d="M16762 23416 c-45 -123 -82 -228 -82
-234 0 -6 12 -15 28 -20 304 -111 367 -127 444 -111 58 13 121 66 154 131 69
136 22 258 -128 334 -49 25 -310 124 -326 124 -4 0 -45 -101 -90 -224z"/>
<path fill="#000000" stroke="none" d="M8418 23864 c-56 -13 -290 -113 -322
-137 -13 -10 18 -83 244 -566 143 -305 262 -557 265 -559 8 -9 198 82 270 129
159 104 245 250 245 416 0 164 -114 436 -245 581 -116 129 -283 179 -457 136z"/>
<path fill="#000000" stroke="none" d="M19056 23369 c-21 -5 -69 -25 -106 -44
-242 -128 -487 -567 -456 -818 20 -154 145 -291 334 -364 51 -20 86 -27 148
-27 73 -1 87 2 156 36 218 108 443 448 480 724 10 69 9 93 -5 150 -31 125
-125 228 -272 298 -107 52 -192 65 -279 45z"/>
<path fill="#000000" stroke="none" d="M18526 21083 c10 -103 12 -2425 2
-2525 -23 -211 -128 -441 -271 -594 l-57 -62 -153 -50 c-158 -53 -305 -88
-495 -121 l-112 -19 -260 84 c-416 135 -2559 869 -3005 1029 -244 87 -244 87
-365 92 -94 4 -131 1 -204 -16 -458 -109 -787 -571 -687 -963 20 -76 65 -178
79 -178 4 0 27 31 52 68 24 37 94 117 155 178 158 161 305 251 505 310 53 15
95 19 220 18 l155 -1 495 -180 c272 -100 842 -308 1265 -463 424 -155 981
-358 1240 -452 258 -93 483 -178 500 -188 16 -10 73 -26 125 -35 52 -9 103
-24 113 -32 38 -35 23 -54 -111 -137 -409 -255 -909 -574 -2457 -1567 -346
-223 -772 -495 -945 -604 -350 -222 -431 -289 -507 -420 -98 -170 -135 -323
-137 -565 l-1 -166 -100 -58 c-75 -44 -425 -258 -443 -271 -1 -1 9 -71 22
-156 116 -722 122 -1223 20 -1689 -33 -149 -129 -435 -198 -590 -258 -576
-705 -1066 -1256 -1375 -225 -126 -468 -217 -750 -281 -157 -36 -174 -38 -345
-38 -154 -1 -195 2 -285 22 -237 53 -468 156 -701 310 -166 111 -202 142 -297
257 -190 227 -328 488 -512 970 -40 105 -84 212 -97 239 -32 62 -120 150 -196
195 -66 39 -222 94 -318 114 l-64 13 -6 114 c-4 63 -7 559 -8 1103 l-1 987 69
-77 c108 -124 364 -368 512 -491 164 -136 337 -267 603 -455 l199 -141 42 -91
c51 -109 109 -270 210 -590 86 -271 124 -358 193 -443 119 -148 266 -235 467
-277 166 -35 446 -12 558 45 186 96 378 328 453 547 53 156 62 276 33 430 -10
51 -11 53 -73 83 -147 73 -321 45 -632 -100 l-102 -48 -12 27 c-186 392 -266
665 -286 980 -6 102 1 235 27 506 20 208 85 397 242 704 55 108 138 273 185
366 200 401 450 757 739 1055 l102 106 -82 70 c-144 124 -373 304 -714 562
-182 138 -380 289 -440 337 -195 155 -345 203 -493 159 -68 -20 -242 -124
-359 -214 -315 -243 -573 -636 -681 -1035 -11 -44 -24 -87 -27 -95 -11 -31
-75 194 -109 385 -26 144 -26 519 0 660 38 210 99 382 198 560 304 549 774
963 1493 1314 147 72 375 172 484 212 35 12 59 25 52 27 -34 11 -376 -76 -558
-143 -135 -50 -436 -200 -566 -282 -801 -507 -1366 -1332 -1516 -2213 -51
-296 -54 -688 -6 -855 7 -27 28 -124 45 -215 38 -201 69 -300 120 -379 38 -58
67 -81 56 -43 -12 38 -96 506 -115 637 -78 545 -44 920 111 1229 44 87 88 160
93 154 1 -1 -6 -46 -16 -98 -26 -126 -36 -395 -20 -526 15 -125 45 -255 83
-364 35 -101 133 -293 188 -369 45 -63 36 -80 76 144 43 243 112 471 192 630
71 144 207 313 313 391 l49 36 44 -46 c58 -59 137 -109 217 -137 75 -26 224
-31 299 -10 120 34 253 128 321 227 l30 44 87 -55 c127 -79 277 -187 527 -379
122 -94 270 -205 328 -246 58 -41 106 -78 107 -83 0 -4 -48 -66 -106 -138
-670 -829 -1028 -1552 -1131 -2279 -13 -93 -18 -192 -18 -382 l0 -257 -124 65
c-319 168 -649 411 -812 598 l-43 48 25 46 c13 26 92 117 174 203 138 143 225
258 225 297 0 33 -145 -104 -378 -355 -62 -68 -118 -123 -123 -123 -5 0 -40
30 -78 68 -90 89 -96 113 -45 190 51 78 128 170 284 342 150 166 253 297 304
388 20 35 36 66 36 68 0 12 -46 -23 -119 -92 -93 -87 -190 -199 -345 -398
-140 -178 -201 -248 -233 -264 -53 -29 -127 10 -181 95 -53 83 -52 93 14 175
33 39 160 187 283 327 321 367 454 539 557 716 l29 50 -42 -33 c-103 -81 -305
-309 -613 -692 -118 -146 -242 -298 -276 -337 l-63 -72 -19 27 c-128 180 -271
491 -346 751 -134 461 -156 1018 -60 1539 55 301 111 473 248 757 385 798 965
1427 1616 1751 223 111 384 168 652 231 370 86 279 78 888 75 l545 -2 75 44
c108 64 217 155 366 308 185 188 264 317 315 516 95 372 -9 785 -255 1009 -90
81 -127 99 -244 118 -141 24 -402 17 -514 -13 -120 -33 -225 -78 -316 -138
-118 -79 -198 -183 -347 -452 -37 -67 -70 -122 -74 -122 -4 0 -24 35 -45 78
-130 265 -315 453 -502 512 -92 28 -253 44 -380 36 -272 -15 -470 -115 -577
-291 -105 -173 -133 -259 -172 -517 -30 -202 -62 -348 -77 -348 -6 0 -79 55
-163 123 -226 181 -285 211 -467 243 -102 17 -160 13 -378 -26 -112 -21 -270
-24 -299 -6 -8 5 -11 172 -11 592 l0 585 -128 -87 c-803 -548 -1565 -1279
-2167 -2079 -1460 -1942 -2114 -4365 -1825 -6765 158 -1312 584 -2562 1258
-3695 621 -1043 1445 -1960 2427 -2702 131 -99 424 -303 434 -303 3 0 5 363 3
807 -1 445 1 893 5 997 l8 189 44 -109 c58 -145 171 -367 234 -462 67 -101
192 -230 272 -282 77 -50 177 -86 263 -96 58 -6 172 1 403 25 92 10 161 37
179 70 15 29 -2 64 -68 137 -117 130 -183 274 -202 442 -33 293 99 632 341
874 98 98 223 182 259 173 36 -8 58 -39 76 -104 64 -233 113 -368 191 -525
102 -203 213 -362 302 -430 184 -141 400 -225 825 -321 l209 -47 176 5 c125 4
205 11 276 27 311 66 618 215 938 453 229 170 482 404 565 520 328 463 513
992 572 1632 14 153 14 564 0 720 -24 272 -82 610 -143 838 l-24 87 66 -36
c363 -202 429 -228 576 -229 140 0 285 12 356 30 205 53 403 232 520 470 42
86 99 265 99 311 0 9 -22 0 -64 -26 -144 -91 -278 -125 -465 -117 -141 5 -247
31 -379 92 -300 139 -550 429 -634 736 -30 111 -32 328 -4 429 36 125 152 335
349 630 209 312 753 1055 824 1125 70 70 157 128 430 288 269 159 484 289
1048 637 366 227 852 521 976 592 l46 27 60 -72 c368 -438 603 -1006 695
-1675 20 -146 21 -207 25 -862 3 -759 -1 -835 -49 -1020 l-23 -85 -75 -38
c-54 -27 -111 -44 -200 -62 -156 -32 -208 -48 -259 -85 l-39 -29 14 -53 c26
-97 84 -401 108 -563 32 -213 37 -202 -161 -324 -29 -18 -62 -48 -74 -68 -19
-30 -20 -42 -13 -86 5 -29 8 -92 8 -142 -1 -80 -6 -107 -53 -249 -41 -124 -54
-182 -61 -261 -15 -172 -73 -297 -195 -420 -82 -83 -177 -142 -290 -182 -75
-26 -90 -28 -250 -28 -142 0 -187 4 -275 23 -201 45 -339 95 -705 257 -248
110 -424 179 -434 170 -12 -12 -13 -379 -1 -523 54 -682 317 -1367 743 -1937
74 -99 132 -160 272 -284 618 -550 1199 -850 1785 -921 46 -5 156 -10 243 -10
l159 0 -6 -52 c-4 -29 0 -217 9 -418 8 -201 12 -413 8 -472 -3 -60 -3 -108 1
-108 24 0 446 307 685 499 469 375 992 895 1386 1376 1393 1702 2149 3879
2112 6080 -9 494 -40 863 -113 1325 -230 1458 -809 2860 -1676 4050 -559 769
-1208 1429 -1961 1993 -194 146 -439 317 -452 317 -4 0 -4 -35 1 -77z"/>
<path fill="#ffffff" stroke="none" d="M12252 20675 c249 -52 419 -276 435
-572 9 -169 -23 -310 -107 -472 -30 -58 -71 -112 -148 -195 -126 -135 -141
-147 -224 -186 -84 -39 -171 -56 -358 -70 -85 -6 -166 -13 -178 -16 -20 -4
-12 12 53 107 138 198 145 251 60 465 -145 363 -156 497 -60 691 26 54 63 109
88 135 107 107 271 149 439 113z"/>
<path fill="#ffffff" stroke="none" d="M10548 20478 c116 -42 162 -77 210
-160 175 -308 207 -661 83 -922 -118 -249 -293 -379 -639 -475 l-69 -19 43
132 c51 153 57 233 24 301 -11 22 -64 103 -119 180 -202 284 -250 449 -191
660 50 179 127 263 288 316 86 29 270 22 370 -13z"/>
<path fill="#ffffff" stroke="none" d="M8815 19596 c93 -25 176 -75 256 -155
152 -152 212 -319 226 -622 9 -195 -51 -331 -290 -652 -94 -127 -111 -146
-125 -135 -33 28 -45 82 -51 228 -6 127 -10 152 -33 201 -36 79 -101 136 -245
215 -165 91 -219 140 -271 246 -48 95 -67 191 -56 283 20 182 111 322 241 374
75 30 266 39 348 17z"/>
<path fill="#000000" stroke="none" d="M14531 17334 c-177 -19 -225 -30 -321
-76 -71 -34 -100 -56 -175 -132 -73 -73 -99 -108 -132 -176 -62 -127 -76 -190
-77 -365 -1 -150 -1 -150 31 -216 59 -120 174 -201 334 -235 62 -14 89 -14
169 -5 52 7 118 14 145 17 358 37 685 350 752 719 16 91 12 190 -13 290 -15
60 -20 67 -65 96 -136 87 -354 115 -648 83z"/>
<path fill="#000000" stroke="none" d="M13150 16653 c-8 -3 -51 -23 -95 -45
-193 -96 -348 -246 -435 -418 -64 -127 -74 -181 -75 -380 0 -205 10 -250 85
-406 107 -221 279 -380 497 -458 88 -31 88 -31 283 -30 218 2 276 12 396 69
86 42 194 124 255 196 97 114 182 272 216 403 l18 68 -53 49 c-109 100 -265
146 -457 136 -95 -6 -245 -32 -296 -52 -15 -6 -18 8 -23 122 -10 214 -26 375
-42 443 -32 129 -95 225 -183 282 -44 28 -62 32 -91 21z"/>
<path fill="#000000" stroke="none" d="M17260 15868 c0 -5 45 -113 100 -240
295 -674 430 -1094 497 -1543 25 -168 25 -574 0 -729 -26 -163 -64 -324 -91
-380 -74 -160 -203 -231 -324 -180 -20 8 -86 31 -147 51 -468 150 -889 405
-1226 742 -291 292 -490 605 -608 956 l-40 120 -31 -3 c-42 -3 -87 -27 -94
-50 -8 -25 90 -269 175 -432 239 -461 625 -870 1078 -1144 216 -131 492 -250
708 -306 40 -10 42 -12 48 -58 33 -233 143 -388 319 -448 l46 -16 53 35 c123
81 275 137 374 137 23 0 43 3 43 8 0 23 -165 211 -250 284 l-54 48 23 92 c38
151 68 314 88 463 26 199 26 701 0 900 -74 566 -251 1079 -534 1547 -53 88
-73 112 -109 132 -24 14 -44 20 -44 14z"/>
<path fill="#000000" stroke="none" d="M11897 15333 c-183 -101 -311 -274
-368 -493 -27 -107 -37 -304 -19 -421 43 -295 224 -576 417 -649 167 -63 380
-86 554 -60 167 24 378 112 481 201 121 103 230 348 263 590 l6 46 -40 16
c-150 60 -366 82 -531 53 -77 -14 -203 -50 -280 -80 -13 -5 -15 21 -16 206 0
239 -13 326 -66 436 -56 119 -141 179 -266 188 -63 5 -71 3 -135 -33z"/>
<path fill="#000000" stroke="none" d="M16192 15009 c-112 -26 -175 -60 -253
-138 -170 -170 -193 -373 -71 -616 137 -273 368 -472 622 -536 69 -18 103 -20
189 -16 150 7 198 24 239 85 57 84 75 144 80 272 5 139 -12 242 -69 415 -78
235 -172 379 -306 468 -132 88 -253 106 -431 66z"/>
<path fill="#ffffff" stroke="none" d="M16463 14875 c135 -55 238 -157 304
-301 27 -59 134 -356 130 -360 -1 -1 -47 9 -102 22 -237 58 -571 94 -666 73
-118 -27 -241 57 -242 164 -1 71 22 185 47 235 41 81 133 153 241 189 67 22
207 11 288 -22z"/>
<path fill="#ffffff" stroke="none" d="M16348 14249 c123 -13 290 -50 433 -95
l112 -36 -5 -71 c-6 -95 -38 -167 -96 -217 -52 -46 -85 -54 -190 -48 -151 10
-262 68 -407 213 -92 92 -195 228 -182 241 6 7 125 21 190 23 26 0 91 -4 145
-10z"/>
<path fill="#000000" stroke="none" d="M14970 13996 c-41 -45 -32 -86 48 -224
122 -212 194 -405 228 -614 15 -93 16 -137 7 -384 -12 -310 -19 -353 -80 -423
l-33 -39 -69 19 c-106 30 -212 71 -443 170 -374 160 -636 254 -655 235 -5 -4
-8 -34 -8 -66 0 -51 4 -63 29 -89 77 -81 654 -328 1321 -566 1153 -413 1434
-521 1590 -615 44 -27 122 -67 172 -89 84 -37 433 -161 453 -161 5 0 19 24 33
53 19 42 38 63 90 100 69 49 116 103 101 116 -5 4 -56 40 -113 81 -133 93
-222 140 -268 140 -20 0 -104 -16 -187 -36 -209 -50 -209 -50 -497 76 -402
176 -791 329 -1104 435 -93 32 -173 61 -178 65 -4 3 -1 38 7 76 45 215 59 566
31 793 -44 351 -150 637 -333 894 -49 68 -59 77 -87 77 -21 0 -40 -9 -55 -24z"/>
<path fill="#000000" stroke="none" d="M10925 13919 c-222 -142 -355 -381
-372 -668 -17 -288 120 -572 337 -699 25 -14 67 -44 95 -65 226 -177 566 -200
861 -57 178 86 334 235 417 398 66 129 81 195 82 340 0 120 -1 124 -25 142
-52 40 -131 63 -235 68 -109 4 -188 -10 -445 -83 -69 -20 -147 -37 -174 -38
l-49 -2 -42 170 c-45 182 -69 249 -116 332 -58 101 -159 179 -249 190 -27 3
-46 -3 -85 -28z"/>
<path fill="#000000" stroke="none" d="M16881 11088 c-12 -51 -25 -114 -30
-140 l-8 -47 231 -134 c127 -74 250 -145 274 -157 40 -23 42 -26 42 -70 0
-163 -121 -373 -276 -475 -131 -87 -230 -109 -413 -89 -393 41 -780 167 -1306
424 -382 186 -520 252 -588 281 -108 45 -263 71 -312 53 -10 -4 37 -30 137
-74 84 -37 306 -138 493 -225 600 -278 866 -391 1155 -490 119 -40 151 -47
270 -56 314 -25 521 15 685 132 53 38 62 51 106 144 83 176 134 376 154 607
l6 67 -58 30 c-32 16 -123 76 -203 133 -134 95 -246 157 -311 173 -27 7 -27 6
-48 -87z"/>
<path fill="#000000" stroke="none" d="M14724 9923 c-17 -956 -9 -1335 36
-1699 17 -140 18 -166 5 -335 -28 -359 -36 -581 -42 -1151 l-6 -577 -56 -37
c-77 -52 -146 -126 -164 -176 -11 -29 -17 -99 -21 -218 -6 -200 -25 -376 -95
-932 -53 -411 -94 -798 -87 -806 5 -5 398 44 496 61 l64 12 23 194 c13 107 43
336 68 510 57 403 74 570 82 795 6 192 -6 391 -34 556 -21 125 -13 635 16
1045 24 339 41 677 41 825 l0 104 49 51 50 50 20 245 c55 667 71 1140 54 1589
l-6 174 -231 113 c-127 63 -236 114 -242 114 -9 0 -14 -135 -20 -507z"/>
<path fill="#000000" stroke="none" d="M15259 8358 c-20 -62 -24 -91 -22 -188
1 -102 7 -138 53 -320 45 -180 52 -224 60 -360 14 -238 41 -328 211 -703 69
-151 138 -330 219 -562 65 -187 128 -365 140 -395 34 -86 102 -230 109 -230
17 1 251 202 287 247 l43 52 -39 113 c-55 164 -90 257 -264 706 -135 348 -267
703 -291 780 -4 13 -55 74 -114 137 -122 128 -117 117 -253 510 -88 256 -99
285 -108 285 -4 0 -18 -33 -31 -72z"/>
<path fill="#000000" stroke="none" d="M13165 7453 c-71 -82 -76 -90 -71 -123
3 -19 9 -217 12 -440 7 -415 1 -546 -33 -836 -20 -167 -16 -224 72 -1174 30
-322 59 -650 65 -730 6 -80 13 -160 16 -179 l5 -34 276 6 c151 3 277 7 279 10
3 3 -13 193 -35 423 -61 622 -97 1073 -122 1513 l-11 194 -44 43 c-90 88 -158
222 -189 370 -22 107 -35 349 -28 536 6 155 -10 439 -27 484 -8 20 -16 24 -49
24 -36 0 -43 -6 -116 -87z"/>
<path fill="#000000" stroke="none" d="M12428 6949 c-20 -10 -90 -39 -154 -64
-270 -104 -291 -127 -433 -441 -91 -200 -196 -456 -215 -521 -6 -18 5 -31 66
-78 106 -83 153 -108 205 -109 37 -1 49 4 67 25 13 15 58 114 100 220 114 284
246 605 332 805 41 97 74 177 72 179 -2 2 -20 -5 -40 -16z"/>
<path fill="#000000" stroke="none" d="M10645 6490 c-327 -59 -620 -126 -1390
-319 -434 -109 -840 -209 -902 -222 l-111 -23 -4 -131 c-2 -71 -2 -132 -1
-134 9 -15 432 86 1028 244 259 68 538 142 620 164 83 21 229 66 325 99 241
83 380 113 555 120 88 3 167 0 212 -7 68 -12 74 -15 125 -69 29 -31 78 -87
107 -124 30 -38 77 -84 105 -103 75 -52 186 -67 186 -26 0 40 -34 140 -72 214
-103 197 -314 332 -537 342 -65 3 -125 -3 -246 -25z"/>
<path fill="#000000" stroke="none" d="M17205 6334 c-173 -19 -326 -67 -444
-141 -79 -49 -202 -166 -235 -223 l-19 -33 68 5 c71 6 72 6 364 159 l103 54
162 -2 c231 -3 372 -18 711 -74 355 -60 497 -79 507 -70 7 6 -7 179 -14 186
-5 5 -601 104 -723 120 -120 16 -404 27 -480 19z"/>
<path fill="#000000" stroke="none" d="M10605 5895 c-263 -30 -557 -93 -795
-170 -225 -73 -251 -80 -689 -190 -211 -53 -457 -120 -545 -149 l-161 -52 44
-28 c24 -16 99 -60 165 -98 114 -65 124 -69 166 -63 24 4 74 18 110 32 237 91
466 158 972 282 180 44 406 103 502 131 253 74 345 90 537 97 177 6 270 -3
407 -38 277 -72 561 -327 745 -669 68 -126 103 -217 143 -374 48 -184 114
-374 179 -513 l53 -111 88 -6 c49 -4 102 -9 118 -11 20 -4 27 -1 23 8 -65 148
-125 314 -193 537 -109 353 -144 450 -209 587 -105 220 -198 338 -390 490
-204 163 -402 252 -660 299 -124 22 -454 27 -610 9z"/>
<path fill="#000000" stroke="none" d="M16805 5849 c-237 -15 -298 -25 -372
-62 -290 -147 -504 -433 -659 -880 -46 -134 -188 -676 -180 -685 5 -5 45 4
178 40 92 24 75 -12 149 328 69 323 101 429 156 525 125 218 283 379 458 464
123 60 183 71 391 71 201 0 327 -10 589 -46 467 -64 617 -83 705 -89 52 -3
119 -8 148 -11 l53 -6 -3 124 -3 123 -160 27 c-190 32 -471 64 -680 78 -171
11 -592 11 -770 -1z"/>
<path fill="#000000" stroke="none" d="M6030 22361 c-25 -9 -64 -29 -87 -44
-35 -22 -197 -151 -242 -192 -11 -11 10 -41 120 -174 73 -89 137 -161 142
-161 12 0 240 193 272 232 37 44 65 105 65 146 0 70 -57 159 -124 191 -51 25
-87 26 -146 2z"/>
<path fill="#000000" stroke="none" d="M6484 21785 c-64 -32 -314 -228 -314
-245 0 -10 308 -380 316 -380 11 0 240 198 277 240 102 112 100 244 -4 349
-79 79 -167 91 -275 36z"/>
<path fill="#000000" stroke="none" d="M23875 17973 c-55 -8 -230 -29 -388
-48 -159 -18 -290 -35 -292 -37 -4 -4 188 -442 196 -449 3 -2 102 79 220 181
118 102 259 223 314 269 55 46 104 88 110 92 13 12 -41 10 -160 -8z"/>
<path fill="#000000" stroke="none" d="M16196 2818 c-4 -112 -12 -277 -17
-368 -5 -91 -9 -193 -9 -226 l0 -62 237 60 c131 33 239 61 241 63 2 2 -75 131
-171 287 -95 156 -195 320 -221 366 -26 45 -49 82 -51 82 -1 0 -6 -91 -9 -202z"/>
<path fill="#000000" stroke="none" d="M14511 2684 c-63 -8 -117 -16 -119 -19
-7 -6 38 -409 46 -416 4 -4 77 2 163 12 223 26 302 60 340 143 38 85 14 198
-53 249 -63 49 -163 57 -377 31z"/>
<path fill="#000000" stroke="none" d="M14591 1944 c-63 -8 -116 -16 -118 -17
-5 -6 49 -481 56 -489 11 -12 341 32 400 54 132 49 192 182 145 321 -19 56
-86 121 -140 136 -51 14 -201 12 -343 -5z"/>
</g>
</svg>
