<svg xmlns="http://www.w3.org/2000/svg" viewBox="0 0 2667 2667">
<circle cx="1333.5" cy="1333.5" r="1333.5" fill="#fff"/>
<g transform="translate(0.000000,2667.000000) scale(0.100000,-0.100000)"
fill="#000000" stroke="none">
<path d="M13055 26664 c-1801 -48 -3486 -422 -5115 -1139 -231 -101 -786 -376
-1030 -510 -2052 -1127 -3782 -2791 -4998 -4810 -256 -424 -562 -1012 -756
-1450 -1209 -2732 -1474 -5753 -757 -8640 736 -2965 2476 -5593 4916 -7430
1158 -872 2442 -1545 3813 -2002 3322 -1104 6942 -860 10077 681 1116 548
2081 1197 3020 2031 237 211 819 791 1029 1027 1057 1184 1877 2504 2455 3948
974 2432 1212 5067 690 7630 -920 4517 -4117 8243 -8442 9839 -1272 470 -2617
744 -3967 810 -230 12 -752 20 -935 15z m825 -214 c2071 -92 4016 -639 5825
-1638 1345 -743 2577 -1748 3596 -2932 1806 -2102 2908 -4757 3123 -7530 31
-401 39 -658 33 -1175 -5 -494 -15 -697 -52 -1085 -188 -1963 -810 -3846
-1833 -5545 -320 -532 -742 -1123 -1145 -1608 -472 -566 -1059 -1157 -1627
-1638 -1136 -961 -2468 -1740 -3875 -2264 -1296 -482 -2595 -748 -4000 -816
-312 -15 -1184 -6 -1465 15 -843 64 -1538 173 -2290 361 -949 237 -1794 548
-2675 985 -992 492 -1886 1085 -2730 1812 -483 416 -976 910 -1394 1397 -1194
1394 -2084 3022 -2611 4781 -672 2247 -730 4646 -166 6916 369 1485 987 2884
1831 4144 1049 1567 2410 2880 4025 3880 434 269 1137 637 1600 839 727 317
1407 548 2155 731 891 219 1696 332 2675 373 176 8 801 6 1000 -3z M12453
25270 c-95 -4 -175 -9 -178 -12 -5 -5 52 -1725 61 -1827 l6 -64 190 6 c105 3
193 9 196 11 3 3 0 166 -7 362 -7 195 -11 357 -9 358 1 2 50 6 109 9 l105 7
239 -356 c131 -195 241 -357 244 -358 9 -5 423 12 428 18 2 2 -126 183 -285
402 l-289 398 71 46 c190 125 281 300 262 504 -13 146 -50 237 -132 326 -84
90 -201 144 -371 169 -76 12 -356 12 -640 1z m502 -320 c91 -13 169 -52 200
-98 55 -84 54 -214 -2 -295 -52 -75 -149 -110 -345 -122 l-107 -6 -5 43 c-3
24 -8 141 -11 260 l-7 217 49 4 c97 7 160 6 228 -3z M14858 25180 c-428 -72
-688 -448 -705 -1020 -6 -185 8 -286 54 -412 69 -185 234 -352 423 -428 233
-94 547 -118 735 -56 311 101 506 362 581 778 46 258 19 530 -71 708 -92 182
-282 328 -505 389 -163 45 -384 62 -512 41z m360 -346 c225 -50 332 -211 332
-499 0 -345 -124 -643 -303 -729 -122 -59 -321 -50 -460 21 -169 85 -248 295
-218 577 41 373 192 611 411 644 66 10 152 5 238 -14z M10212 24880 c-277 -76
-505 -140 -507 -142 -2 -2 108 -413 244 -913 220 -805 250 -910 267 -909 18 1
1026 273 1032 279 2 2 -78 306 -83 313 -1 1 -152 -38 -335 -88 -183 -50 -333
-90 -335 -88 -8 10 -127 469 -123 473 3 3 138 42 299 86 162 43 299 81 305 83
8 3 -2 54 -30 154 -22 83 -43 153 -46 155 -3 3 -142 -32 -310 -78 -168 -45
-306 -81 -308 -80 -2 2 -28 92 -58 201 -33 122 -50 200 -44 204 6 4 156 46
334 94 l323 88 -24 87 c-13 47 -31 116 -40 154 -14 56 -20 67 -37 66 -12 0
-247 -63 -524 -139z M16831 24758 c-114 -304 -640 -1752 -638 -1755 11 -10
728 -267 792 -283 290 -74 545 10 667 220 76 129 103 307 64 418 -19 56 -104
158 -157 189 -16 10 -29 21 -29 25 0 4 29 8 65 8 120 0 223 60 296 173 100
154 121 324 57 456 -46 96 -183 206 -362 292 -88 42 -715 279 -738 279 -5 0
-12 -10 -17 -22z m422 -470 c152 -56 248 -112 284 -167 30 -44 30 -119 2 -181
-26 -57 -44 -77 -93 -102 -64 -33 -151 -21 -326 42 -80 28 -149 56 -154 60 -8
8 12 68 116 348 11 28 22 52 25 52 3 0 69 -23 146 -52z m-259 -697 c228 -84
287 -123 326 -213 17 -40 21 -63 17 -99 -13 -106 -96 -209 -185 -228 -77 -16
-140 0 -444 111 -16 5 -28 14 -28 20 0 20 165 458 172 458 5 0 68 -22 142 -49z
M8411 24199 c-125 -26 -212 -61 -548 -219 l-281 -132 28 -61 c45 -101 772
-1652 775 -1655 5 -5 539 248 620 294 386 222 565 548 501 914 -33 189 -124
400 -238 551 -203 270 -512 380 -857 308z m258 -338 c157 -49 287 -193 382
-424 154 -375 48 -619 -344 -796 -53 -24 -99 -42 -102 -39 -3 2 -122 254 -265
559 -226 483 -257 556 -244 566 32 24 266 124 322 137 83 21 180 19 251 -3z
M19859 23960 c-47 -21 -148 -59 -225 -86 -136 -46 -164 -59 -164 -74 0 -4 50
-37 112 -74 l111 -67 136 16 c160 18 432 62 467 75 13 5 24 13 24 17 -1 7
-201 132 -329 204 l-46 26 -86 -37z M18928 23730 c-278 -50 -530 -274 -707
-627 -154 -306 -170 -574 -50 -817 81 -163 248 -315 469 -426 260 -131 495
-144 719 -39 290 135 575 534 641 899 17 91 14 253 -5 324 -40 150 -99 252
-214 366 -127 125 -345 254 -511 300 -84 24 -266 34 -342 20z m284 -361 c123
-26 274 -122 340 -220 55 -80 75 -167 60 -273 -37 -276 -262 -616 -480 -724
-69 -34 -83 -37 -156 -36 -226 2 -456 189 -482 391 -31 251 214 690 456 818
103 53 165 64 262 44z M12980 22924 c-521 -28 -890 -67 -1280 -135 -2100 -367
-4014 -1415 -5444 -2980 -1405 -1537 -2269 -3481 -2470 -5554 -33 -337 -41
-512 -41 -920 1 -642 42 -1111 150 -1715 206 -1142 635 -2274 1238 -3265 867
-1424 2074 -2588 3527 -3400 1167 -653 2491 -1061 3825 -1179 579 -52 1293
-46 1860 14 2834 303 5382 1840 6960 4200 907 1355 1440 2861 1589 4490 52
562 46 1306 -14 1865 -131 1209 -485 2376 -1043 3440 -620 1183 -1455 2197
-2492 3030 -746 598 -1571 1080 -2450 1430 -944 376 -1871 586 -2930 665 -139
11 -861 21 -985 14z m5679 -1850 c768 -525 1507 -1221 2083 -1963 806 -1037
1377 -2203 1698 -3466 259 -1019 345 -2072 255 -3125 -149 -1734 -792 -3416
-1840 -4815 -288 -385 -513 -643 -880 -1011 -356 -357 -644 -607 -1031 -896
-159 -118 -388 -278 -400 -278 -4 0 -4 48 -1 108 4 59 0 271 -8 472 -9 201
-13 389 -9 418 l6 52 -159 0 c-87 0 -197 5 -243 10 -586 71 -1167 371 -1785
921 -140 124 -198 185 -272 284 -426 570 -689 1255 -743 1937 -12 144 -11 511
1 523 10 9 186 -60 434 -170 366 -162 504 -212 705 -257 88 -19 133 -23 275
-23 160 0 175 2 250 28 113 40 208 99 290 182 122 123 180 248 195 420 7 79
20 137 61 261 47 142 52 169 53 249 0 50 -3 113 -8 142 -7 44 -6 56 13 86 12
20 45 50 74 68 125 77 150 96 167 129 17 34 17 39 -6 195 -24 162 -82 466
-108 563 l-14 53 39 29 c51 37 103 53 259 85 89 18 146 35 200 62 l75 38 23
85 c48 185 52 261 49 1020 -4 655 -5 716 -25 862 -92 669 -327 1237 -695 1675
l-60 72 -46 -27 c-124 -71 -610 -365 -976 -592 -564 -348 -779 -478 -1048
-637 -273 -160 -360 -218 -430 -288 -71 -70 -615 -813 -824 -1125 -197 -295
-313 -505 -349 -630 -28 -101 -26 -318 4 -429 84 -307 334 -597 634 -736 132
-61 238 -87 379 -92 187 -8 321 26 465 117 42 26 64 35 64 26 0 -46 -57 -225
-99 -311 -117 -238 -315 -417 -520 -470 -71 -18 -216 -30 -356 -30 -147 1
-213 27 -576 229 l-66 36 24 -87 c61 -228 119 -566 143 -838 14 -156 14 -567
0 -720 -59 -640 -244 -1169 -572 -1632 -83 -116 -336 -350 -565 -520 -320
-238 -627 -387 -938 -453 -71 -16 -151 -23 -276 -27 l-176 -5 -209 47 c-425
96 -641 180 -825 321 -89 68 -200 227 -302 430 -78 157 -127 292 -191 525 -18
65 -40 96 -76 104 -36 9 -161 -75 -259 -173 -242 -242 -374 -581 -341 -874 19
-168 85 -312 202 -442 66 -73 83 -108 68 -137 -18 -33 -87 -60 -179 -70 -231
-24 -345 -31 -403 -25 -86 10 -186 46 -263 96 -80 52 -205 181 -272 282 -63
95 -176 317 -234 462 l-44 109 -8 -189 c-4 -104 -6 -552 -5 -997 2 -444 0
-807 -3 -807 -10 0 -303 204 -434 303 -982 742 -1806 1659 -2427 2702 -966
1623 -1418 3479 -1307 5370 147 2522 1327 4904 3249 6559 241 207 548 443 792
610 l128 87 0 -585 c0 -420 3 -587 11 -592 29 -18 187 -15 299 6 218 39 276
43 378 26 182 -32 241 -62 467 -243 84 -68 157 -123 163 -123 15 0 47 146 77
348 39 258 67 344 172 517 107 176 305 276 577 291 127 8 288 -8 380 -36 187
-59 372 -247 502 -512 21 -43 41 -78 45 -78 4 0 37 55 74 122 149 269 229 373
347 452 91 60 196 105 316 138 112 30 373 37 514 13 117 -19 154 -37 244 -118
246 -224 350 -637 255 -1009 -51 -199 -130 -328 -315 -516 -149 -153 -258
-244 -366 -308 l-75 -44 -545 2 c-609 3 -518 11 -888 -75 -268 -63 -429 -120
-652 -231 -651 -324 -1231 -953 -1616 -1751 -101 -210 -147 -329 -188 -485
-135 -517 -156 -1067 -60 -1563 68 -352 230 -751 406 -999 l19 -27 63 72 c34
39 158 191 276 337 308 383 510 611 613 692 l42 33 -29 -50 c-103 -177 -236
-349 -557 -716 -123 -140 -250 -288 -283 -327 -66 -82 -67 -92 -14 -175 54
-85 128 -124 181 -95 32 16 93 86 233 264 155 199 252 311 345 398 73 69 119
104 119 92 0 -2 -16 -33 -36 -68 -51 -91 -154 -222 -304 -388 -156 -172 -233
-264 -284 -342 -51 -77 -45 -101 45 -190 38 -38 73 -68 78 -68 5 0 61 55 123
123 233 251 378 388 378 355 0 -39 -87 -154 -225 -297 -82 -86 -161 -177 -174
-203 l-25 -46 43 -48 c163 -187 493 -430 812 -598 l124 -65 0 257 c1 372 40
614 155 962 179 539 499 1086 994 1699 58 72 106 134 106 138 -1 5 -49 42
-107 83 -58 41 -206 152 -328 246 -250 192 -400 300 -527 379 l-87 55 -30 -44
c-68 -99 -201 -193 -321 -227 -75 -21 -224 -16 -299 10 -80 28 -159 78 -217
137 l-44 46 -49 -36 c-106 -78 -242 -247 -313 -391 -80 -159 -149 -387 -192
-630 -40 -224 -31 -207 -76 -144 -55 76 -153 268 -188 369 -38 109 -68 239
-83 364 -16 131 -6 400 20 526 10 52 17 97 16 98 -5 6 -49 -67 -93 -154 -155
-309 -189 -684 -111 -1229 19 -131 103 -599 115 -637 11 -38 -18 -15 -56 43
-51 79 -82 178 -120 379 -17 91 -38 188 -45 215 -19 67 -35 243 -35 385 1
1040 604 2080 1557 2683 130 82 431 232 566 282 182 67 524 154 558 143 7 -2
-17 -15 -52 -27 -109 -40 -337 -140 -484 -212 -719 -351 -1189 -765 -1493
-1314 -99 -178 -160 -350 -198 -560 -26 -141 -26 -516 0 -660 34 -191 98 -416
109 -385 3 8 16 51 27 95 86 316 276 647 505 878 154 156 412 335 535 371 148
44 298 -4 493 -159 60 -48 258 -199 440 -337 341 -258 570 -438 714 -562 l82
-70 -102 -106 c-289 -298 -539 -654 -739 -1055 -47 -93 -130 -258 -185 -366
-157 -307 -222 -496 -242 -704 -26 -271 -33 -404 -27 -506 20 -315 100 -588
286 -980 l12 -27 102 48 c311 145 485 173 632 100 62 -30 63 -32 73 -83 29
-154 20 -274 -33 -430 -75 -219 -267 -451 -453 -547 -112 -57 -392 -80 -558
-45 -201 42 -348 129 -467 277 -69 85 -107 172 -193 443 -101 320 -159 481
-210 590 l-42 91 -199 141 c-266 188 -439 319 -603 455 -148 123 -404 367
-512 491 l-69 77 1 -987 c1 -544 4 -1040 8 -1103 l6 -114 64 -13 c96 -20 252
-75 318 -114 76 -45 164 -133 196 -195 13 -27 57 -134 97 -239 184 -482 322
-743 512 -970 95 -115 131 -146 297 -257 233 -154 464 -257 701 -310 90 -20
131 -23 285 -22 171 0 188 2 345 38 549 124 1003 376 1401 776 333 336 562
712 719 1179 187 560 205 1106 64 1980 -13 85 -23 155 -22 156 18 13 368 227
443 271 l100 58 1 166 c2 242 39 395 137 565 76 131 157 198 507 420 173 109
599 381 945 604 1548 993 2048 1312 2457 1567 134 83 149 102 111 137 -10 8
-61 23 -113 32 -52 9 -109 25 -125 35 -17 10 -242 95 -500 188 -259 94 -816
297 -1240 452 -423 155 -993 363 -1265 463 l-495 180 -155 1 c-125 1 -167 -3
-220 -18 -200 -59 -347 -149 -505 -310 -61 -61 -131 -141 -155 -178 -25 -37
-48 -68 -52 -68 -14 0 -59 102 -79 178 -100 392 229 854 687 963 73 17 110 20
204 16 121 -5 121 -5 365 -92 446 -160 2589 -894 3005 -1029 l260 -84 112 19
c190 33 337 68 495 121 l153 50 57 62 c143 153 248 383 271 594 10 100 8 2422
-2 2525 -5 42 -5 77 -1 77 4 0 64 -39 134 -86z m-3760 -3734 c106 -14 217 -49
280 -89 45 -29 50 -36 65 -96 25 -100 29 -199 13 -290 -67 -369 -394 -682
-752 -719 -27 -3 -93 -10 -145 -17 -80 -9 -107 -9 -169 5 -160 34 -275 115
-334 235 -32 66 -32 66 -31 216 1 175 15 238 77 365 33 68 59 103 132 176 75
76 104 98 175 132 96 46 144 57 321 76 156 17 262 19 368 6z m-1658 -708 c88
-57 151 -153 183 -282 16 -68 32 -229 42 -443 5 -114 8 -128 23 -122 51 20
201 46 296 52 192 10 348 -36 457 -136 l53 -49 -18 -68 c-81 -313 -329 -577
-607 -649 -49 -13 -113 -18 -260 -19 -195 -1 -195 -1 -283 30 -218 78 -390
237 -497 458 -75 156 -85 201 -85 406 1 199 11 253 75 380 87 172 242 322 435
418 126 62 125 62 186 24z m4172 -910 c283 -468 460 -981 534 -1547 26 -199
26 -701 0 -900 -20 -149 -50 -312 -88 -463 l-23 -92 54 -48 c85 -73 250 -261
250 -284 0 -5 -20 -8 -43 -8 -99 0 -251 -56 -374 -137 l-53 -35 -46 16 c-176
60 -286 215 -319 448 -6 46 -8 48 -48 58 -216 56 -492 175 -708 306 -453 274
-839 683 -1078 1144 -85 163 -183 407 -175 432 7 23 52 47 94 50 l31 3 40
-120 c118 -351 317 -664 608 -956 337 -337 758 -592 1226 -742 61 -20 127 -43
147 -51 121 -51 250 20 324 180 27 56 65 217 91 380 25 155 25 561 0 729 -67
449 -202 869 -497 1543 -55 127 -100 235 -100 240 0 6 20 0 44 -14 36 -20 56
-44 109 -132z m-5269 -380 c96 -43 168 -152 202 -307 14 -62 18 -127 18 -293
1 -185 3 -211 16 -206 77 30 203 66 280 80 165 29 381 7 531 -53 l40 -16 -6
-46 c-33 -242 -142 -487 -263 -590 -60 -52 -216 -133 -317 -164 -277 -87 -659
-48 -825 84 -153 121 -276 355 -310 588 -18 117 -8 314 19 421 57 219 185 392
368 493 64 36 72 38 135 33 37 -3 87 -14 112 -24z m4349 -333 c142 -48 278
-175 356 -334 51 -102 115 -295 136 -410 12 -65 16 -122 13 -205 -5 -128 -23
-188 -80 -272 -41 -61 -89 -78 -239 -85 -86 -4 -120 -2 -189 16 -254 64 -485
263 -622 536 -95 189 -102 340 -22 498 34 67 144 177 211 211 122 61 325 82
436 45z m-1381 -1066 c183 -257 289 -543 333 -894 28 -227 14 -578 -31 -793
-8 -38 -11 -73 -7 -76 5 -4 85 -33 178 -65 313 -106 702 -259 1104 -435 288
-126 288 -126 497 -76 83 20 167 36 187 36 46 0 135 -47 268 -140 57 -41 108
-77 113 -81 15 -13 -32 -67 -101 -116 -52 -37 -71 -58 -90 -100 -14 -29 -28
-53 -33 -53 -20 0 -369 124 -453 161 -50 22 -128 62 -172 89 -156 94 -437 202
-1590 615 -667 238 -1244 485 -1321 566 -25 26 -29 38 -29 89 0 32 3 62 8 66
19 19 281 -75 655 -235 231 -99 337 -140 443 -170 l69 -19 33 39 c61 70 68
113 80 423 9 247 8 291 -7 384 -34 209 -106 402 -228 614 -56 95 -72 132 -71
161 1 50 34 87 78 87 28 0 38 -9 87 -77z m-4019 -23 c88 -41 164 -136 218
-270 12 -30 41 -131 64 -225 l42 -170 49 2 c27 1 105 18 174 38 257 73 336 87
445 83 104 -5 183 -28 235 -68 24 -18 25 -22 25 -142 -1 -145 -16 -211 -82
-340 -56 -109 -148 -218 -253 -297 -321 -242 -749 -260 -1025 -44 -28 21 -70
51 -95 65 -217 127 -354 411 -337 699 17 287 150 526 372 668 58 37 90 37 168
1z m5932 -2783 c38 -18 135 -79 215 -135 80 -57 171 -117 203 -133 l58 -30 -6
-67 c-20 -231 -71 -431 -154 -607 -44 -93 -53 -106 -106 -144 -164 -117 -371
-157 -685 -132 -119 9 -151 16 -270 56 -289 99 -555 212 -1155 490 -187 87
-409 188 -493 225 -100 44 -147 70 -137 74 49 18 204 -8 312 -53 68 -29 206
-95 588 -281 526 -257 913 -383 1306 -424 183 -20 282 2 413 89 155 102 276
312 276 475 0 44 -2 47 -42 70 -24 12 -147 83 -274 157 l-231 134 8 47 c5 26
18 89 30 140 21 93 21 94 48 87 14 -3 57 -21 96 -38z m-2039 -821 l231 -113 6
-174 c17 -449 1 -922 -54 -1589 l-20 -245 -50 -50 -49 -51 0 -104 c0 -148 -17
-486 -41 -825 -29 -410 -37 -920 -16 -1045 28 -165 40 -364 34 -556 -8 -225
-25 -392 -82 -795 -25 -174 -55 -403 -68 -510 l-23 -194 -64 -12 c-98 -17
-491 -66 -496 -61 -7 8 34 395 87 806 70 556 89 732 95 932 4 119 10 189 21
218 18 50 87 124 164 176 l56 37 6 577 c6 570 14 792 42 1151 13 169 12 195
-5 335 -45 364 -53 743 -36 1699 6 372 11 507 20 507 6 0 115 -51 242 -114z
m327 -1928 c9 -24 47 -133 85 -243 136 -393 131 -382 253 -510 59 -63 110
-124 114 -137 24 -77 156 -432 291 -780 174 -449 209 -542 264 -706 l39 -113
-43 -52 c-36 -45 -270 -246 -287 -247 -7 0 -75 144 -109 230 -12 30 -75 208
-140 395 -81 232 -150 411 -219 562 -170 375 -197 465 -211 703 -8 136 -15
180 -60 360 -46 182 -52 218 -53 320 -2 97 2 126 22 188 13 39 27 72 31 72 4
0 14 -19 23 -42z m-1983 -872 c17 -45 33 -329 27 -484 -7 -187 6 -429 28 -536
31 -148 99 -282 189 -370 l44 -43 11 -194 c25 -440 61 -891 122 -1513 22 -230
38 -420 35 -423 -2 -3 -128 -7 -279 -10 l-276 -6 -5 34 c-3 19 -10 99 -16 179
-6 80 -35 408 -65 730 -88 950 -92 1007 -72 1174 34 290 40 421 33 836 -3 223
-9 421 -12 440 -5 33 0 41 71 123 73 81 80 87 116 87 33 0 41 -4 49 -24z
m-934 -730 c-86 -200 -218 -521 -332 -805 -42 -106 -87 -205 -100 -220 -18
-21 -30 -26 -67 -25 -52 1 -99 26 -205 109 -61 47 -72 60 -66 78 19 65 124
321 215 521 142 314 163 337 433 441 64 25 134 54 154 64 20 11 38 18 40 16 2
-2 -31 -82 -72 -179z m-1340 -301 c162 -54 297 -167 372 -312 38 -74 72 -174
72 -214 0 -41 -111 -26 -186 26 -28 19 -75 65 -105 103 -29 37 -78 93 -107
124 -51 54 -57 57 -125 69 -45 7 -124 10 -212 7 -175 -7 -314 -37 -555 -120
-96 -33 -242 -78 -325 -99 -82 -22 -361 -96 -620 -164 -596 -158 -1019 -259
-1028 -244 -1 2 -1 63 1 134 l4 131 111 23 c62 13 468 113 902 222 770 193
1063 260 1390 319 197 36 292 35 411 -5z m6629 -170 c122 -16 718 -115 723
-120 7 -7 21 -180 14 -186 -10 -9 -152 10 -507 70 -339 56 -480 71 -711 74
l-162 2 -103 -54 c-292 -153 -293 -153 -364 -159 l-68 -5 19 33 c33 57 156
174 235 223 118 74 271 122 444 141 76 8 360 -3 480 -19z m-6470 -429 c258
-47 456 -136 660 -299 192 -152 285 -270 390 -490 65 -137 100 -234 209 -587
68 -223 128 -389 193 -537 4 -9 -3 -12 -23 -8 -16 2 -69 7 -118 11 l-88 6 -53
111 c-65 139 -131 329 -179 513 -40 157 -75 248 -143 374 -184 342 -468 597
-745 669 -137 35 -230 44 -407 38 -192 -7 -284 -23 -537 -97 -96 -28 -322 -87
-502 -131 -506 -124 -735 -191 -972 -282 -36 -14 -86 -28 -110 -32 -42 -6 -52
-2 -166 63 -66 38 -141 82 -165 98 l-44 28 161 52 c88 29 334 96 545 149 438
110 464 117 689 190 238 77 532 140 795 170 156 18 486 13 610 -9z m6360 -36
c209 -14 490 -46 680 -78 l160 -27 3 -123 3 -124 -53 6 c-29 3 -96 8 -148 11
-88 6 -238 25 -705 89 -262 36 -388 46 -589 46 -208 0 -268 -11 -391 -71 -175
-85 -333 -246 -458 -464 -55 -96 -87 -202 -156 -525 -74 -340 -57 -304 -149
-328 -133 -36 -173 -45 -178 -40 -8 9 134 551 180 685 132 383 292 625 526
797 111 82 189 116 293 127 245 28 712 37 982 19z M12023 20675 c-137 -30
-228 -105 -298 -248 -96 -194 -85 -328 60 -691 85 -214 78 -267 -60 -465 -65
-95 -73 -111 -53 -107 12 3 93 10 178 16 187 14 274 31 358 70 83 39 98 51
224 186 77 83 118 137 148 195 84 162 116 303 107 472 -21 393 -317 647 -664
572z M10178 20491 c-161 -53 -238 -137 -288 -316 -59 -211 -11 -376 191 -660
55 -77 108 -158 119 -180 33 -68 27 -148 -24 -301 l-43 -132 69 19 c273 76
430 167 541 314 138 184 193 381 168 605 -19 171 -71 333 -153 478 -48 83 -94
118 -210 160 -100 35 -284 42 -370 13z M8552 19600 c-108 -16 -187 -65 -243
-153 -103 -159 -113 -353 -27 -525 52 -106 106 -155 271 -246 144 -79 209
-136 245 -215 23 -49 27 -74 33 -201 6 -146 18 -200 51 -228 14 -11 31 8 125
135 239 321 299 457 290 652 -14 303 -74 470 -226 622 -80 80 -163 130 -256
155 -54 15 -177 16 -263 4z M16175 14897 c-108 -36 -200 -108 -241 -189 -25
-50 -48 -164 -47 -235 1 -107 124 -191 242 -164 95 21 429 -15 666 -73 55 -13
101 -23 102 -22 4 4 -103 301 -130 360 -66 144 -169 246 -304 301 -81 33 -221
44 -288 22z M16087 14249 c-38 -4 -71 -10 -74 -13 -13 -13 90 -149 182 -241
145 -145 256 -203 407 -213 105 -6 138 2 190 48 58 50 90 122 96 217 l5 71
-112 36 c-143 45 -310 82 -433 95 -108 12 -160 12 -261 0z M20594 22688 c-49
-56 -96 -111 -106 -123 -16 -20 -12 -25 177 -190 190 -167 193 -170 176 -190
-10 -11 -242 -276 -516 -589 l-499 -569 45 -41 c149 -135 250 -217 259 -211 9
5 958 1084 1011 1149 16 19 22 15 212 -152 l195 -171 103 119 c57 66 105 123
106 127 3 8 -1048 934 -1066 941 -4 1 -48 -44 -97 -100z M6125 22769 c-111
-26 -256 -100 -387 -197 -76 -56 -540 -440 -552 -456 -6 -9 176 -235 589 -732
329 -395 601 -723 605 -728 11 -11 589 473 670 561 122 132 180 257 188 399 6
112 -17 199 -76 289 -54 85 -152 179 -220 212 -51 25 -68 28 -157 28 -87 0
-107 -3 -157 -27 -31 -14 -59 -24 -62 -21 -3 3 6 22 19 42 96 145 63 334 -87
498 -104 113 -243 162 -373 132z m51 -410 c67 -32 124 -121 124 -191 0 -41
-28 -102 -65 -146 -32 -39 -260 -232 -272 -232 -5 0 -69 72 -142 161 -110 133
-131 163 -120 174 45 41 207 170 242 192 55 35 125 62 161 63 16 0 49 -9 72
-21z m509 -558 c53 -24 102 -75 131 -136 43 -91 26 -179 -53 -265 -37 -42
-266 -240 -277 -240 -8 0 -316 370 -316 380 0 4 55 53 123 109 194 160 291
198 392 152z M21960 21504 c-115 -99 -107 -74 -65 -208 20 -64 35 -120 33
-125 -2 -4 -201 -182 -443 -396 -242 -213 -449 -396 -460 -405 -19 -18 -23
-17 -128 31 -60 27 -113 49 -119 49 -15 0 -163 -131 -163 -144 0 -6 126 -154
279 -328 l279 -317 36 31 c20 17 58 51 85 75 l48 43 -37 122 c-35 117 -36 122
-18 138 17 17 861 759 894 787 15 12 32 7 132 -38 l116 -51 84 75 85 75 -282
320 c-154 176 -283 321 -286 321 -3 1 -34 -24 -70 -55z M4451 21373 c-66 -81
-121 -150 -121 -153 0 -4 207 -177 461 -385 253 -208 485 -406 516 -439 78
-84 108 -152 107 -241 0 -56 -6 -81 -28 -127 -66 -132 -193 -246 -301 -268
-70 -15 -155 6 -242 58 -34 20 -271 209 -527 420 -256 211 -469 384 -473 384
-4 1 -63 -65 -131 -147 l-122 -149 22 -22 c30 -29 864 -713 951 -781 213 -164
471 -197 688 -88 225 113 451 391 516 635 27 104 23 246 -11 345 -33 95 -80
176 -146 248 -42 46 -1006 847 -1029 855 -4 1 -63 -64 -130 -145z M22645
20198 c-256 -24 -547 -178 -771 -409 -175 -181 -249 -347 -248 -559 0 -131 18
-200 89 -345 89 -181 223 -345 384 -470 l58 -44 134 90 c74 49 135 92 136 96
2 5 -16 21 -38 37 -65 46 -218 196 -271 266 -98 129 -138 253 -117 365 32 175
207 362 464 496 295 154 530 125 681 -86 59 -83 86 -153 120 -305 15 -69 29
-127 30 -129 5 -6 317 60 327 68 18 17 -47 253 -108 386 -73 161 -216 334
-348 422 -149 99 -324 140 -522 121z M2762 18957 c-51 -90 -92 -168 -92 -173
1 -15 1641 -937 1649 -928 13 15 572 1006 569 1009 -9 9 -272 155 -278 155 -4
0 -90 -147 -191 -326 -101 -179 -189 -328 -194 -330 -6 -3 -313 167 -683 376
-370 209 -676 380 -680 380 -4 0 -49 -73 -100 -163z M23240 18264 c-531 -40
-982 -73 -1002 -73 l-37 -1 84 -192 84 -193 68 2 c37 1 144 11 238 22 93 11
170 19 171 18 10 -13 274 -632 272 -637 -2 -4 -81 -74 -175 -155 -95 -81 -173
-152 -173 -157 0 -6 37 -95 82 -199 81 -189 82 -189 102 -171 37 33 1380 1283
1420 1323 l39 37 -98 226 c-54 124 -101 225 -104 225 -3 -1 -440 -34 -971 -75z
m795 -283 c-6 -4 -55 -46 -110 -92 -55 -46 -196 -167 -314 -269 -118 -102
-217 -183 -220 -181 -8 7 -200 445 -196 449 2 2 133 19 292 37 158 19 333 40
388 48 119 18 173 20 160 8z M2414 18107 c-33 -34 -87 -103 -120 -152 -363
-532 -235 -1084 316 -1364 206 -105 425 -161 625 -161 168 0 284 31 412 112
223 141 402 512 406 846 l2 116 -85 32 c-47 18 -115 43 -151 57 l-66 25 -12
-145 c-28 -337 -134 -548 -308 -613 -150 -56 -381 -24 -619 85 -282 129 -425
347 -370 565 32 128 96 231 228 366 l59 60 -88 80 c-48 44 -107 97 -129 117
l-42 37 -58 -63z M10140 3350 c-23 -84 -440 -1781 -440 -1789 0 -8 370 -105
375 -99 1 2 42 163 90 358 48 195 89 358 91 361 2 4 139 -27 305 -67 166 -41
307 -74 313 -74 14 0 88 303 75 310 -5 3 -144 39 -309 79 -205 50 -300 78
-300 87 0 19 109 456 115 463 4 4 614 -140 660 -156 10 -3 92 303 84 312 -5 5
-1021 255 -1037 255 -6 0 -16 -18 -22 -40z M16130 3308 c-129 -33 -236 -61
-236 -62 -7 -5 -177 -1997 -171 -2002 5 -6 393 89 402 98 2 2 9 107 15 233 7
127 15 233 18 236 12 11 654 171 666 166 6 -3 65 -93 131 -201 88 -146 122
-195 134 -192 9 3 100 26 204 52 103 25 187 50 187 55 0 8 -1093 1655 -1109
1670 -3 4 -112 -20 -241 -53z m126 -370 c26 -46 126 -210 221 -366 96 -156
173 -285 171 -287 -2 -2 -110 -30 -241 -63 l-237 -60 0 62 c0 33 4 135 9 226
5 91 13 256 17 368 3 111 8 202 9 202 2 0 25 -37 51 -82z M11246 3103 c-10
-48 -26 -157 -26 -176 0 -11 36 -40 103 -83 56 -37 103 -68 105 -69 2 -2 -159
-1103 -174 -1192 -7 -35 2 -32 -195 -88 l-57 -16 -13 -102 c-8 -56 -14 -106
-14 -111 0 -12 837 -138 846 -128 7 7 29 162 29 199 0 16 -25 37 -105 89 -87
56 -104 70 -100 88 3 12 43 284 91 606 47 322 89 588 92 592 4 3 57 21 117 38
61 17 113 35 117 38 8 8 41 213 35 218 -4 5 -803 124 -828 124 -11 0 -19 -10
-23 -27z M14650 3024 c-138 -13 -686 -76 -689 -80 -5 -5 204 -1872 210 -1878
5 -5 677 69 769 84 318 53 523 223 560 464 17 106 -8 263 -54 354 -50 97 -164
176 -276 189 -28 3 -53 9 -55 14 -3 4 19 18 48 32 182 83 249 325 157 569 -44
117 -148 197 -306 232 -72 16 -282 27 -364 20z m160 -335 c122 -28 185 -165
131 -285 -38 -83 -117 -117 -340 -143 -86 -10 -159 -16 -163 -12 -8 7 -53 410
-46 416 8 8 229 33 303 34 39 0 90 -4 115 -10z m124 -740 c54 -15 121 -80 140
-136 47 -139 -13 -272 -145 -321 -59 -22 -389 -66 -400 -54 -7 8 -61 483 -56
489 2 1 55 9 118 17 142 17 292 19 343 5z M12196 2858 c-15 -307 -37 -1150
-32 -1212 9 -99 23 -151 68 -244 81 -170 226 -283 436 -339 86 -23 117 -26
272 -27 149 0 188 3 264 22 199 50 357 171 434 333 72 150 71 145 95 871 11
362 19 660 16 662 -3 3 -91 8 -196 12 l-191 7 -6 -104 c-3 -57 -13 -333 -21
-614 -11 -332 -21 -533 -30 -576 -44 -215 -196 -313 -435 -279 -90 12 -186 56
-228 104 -17 19 -40 61 -53 93 -31 82 -33 216 -11 863 10 294 18 536 18 536
-1 1 -89 4 -197 8 l-197 6 -6 -122z"/>
</g>
</svg>
